<?xml version="1.0" standalone="no"?><!DOCTYPE svg PUBLIC "-//W3C//DTD SVG 1.1//EN" "http://www.w3.org/Graphics/SVG/1.1/DTD/svg11.dtd"><svg class="icon" height="512" viewBox="0 0 1024 1024" version="1.1" xmlns="http://www.w3.org/2000/svg"><path d="M512 0c282.752 0 512 229.248 512 512s-229.248 512-512 512S0 794.752 0 512 229.248 0 512 0z m312.874667 364.885333a23.296 23.296 0 0 0 0-32.896l-16.512-16.469333a23.296 23.296 0 0 0-32.853334 0l-341.333333 334.208-125.312-131.114667c-4.096-4.096-14.805333-0.085333-23.893333 9.045334l-16.469334 16.426666c-9.045333 9.088-13.098667 19.797333-8.96 23.893334l167.125334 174.933333c4.138667 4.138667 14.848 0.085333 23.893333-9.002667l16.469333-16.469333c2.901333-2.858667 5.034667-5.888 6.826667-8.789333l351.018667-343.765334z" fill="#7BD051" /></svg>